<?xml version="1.0" encoding="utf-8"?>
<!-- Generator: Adobe Illustrator 21.1.0, SVG Export Plug-In . SVG Version: 6.00 Build 0)  -->
<svg version="1.1" id="Layer_2" xmlns="http://www.w3.org/2000/svg" xmlns:xlink="http://www.w3.org/1999/xlink" x="0px" y="0px"
	 viewBox="0 0 61 100" style="enable-background:new 0 0 61 100;" xml:space="preserve">
<style type="text/css">
	.st0{fill:#F2F2F2;}
</style>
<path class="st0" d="M54,2H41.5c-14,0-23.1,9.3-23.1,23.7v10.9H6c-1.1,0-2,0.9-2,2v15.8c0,1.1,0.9,2,2,2h12.5v39.9c0,1.1,0.9,2,2,2
	h16.4c1.1,0,2-0.9,2-2V56.4h14.7c1.1,0,2-0.9,2-2V38.6c0-0.5-0.2-1-0.6-1.4c-0.4-0.4-0.9-0.6-1.4-0.6H38.9v-9.2
	c0-4.4,1.1-6.7,6.8-6.7h8.4c1.1,0,2-0.9,2-2V4C56,2.8,55.1,2,54,2z"/>
</svg>
