<?xml version="1.0" encoding="utf-8"?>
<!-- Generator: Adobe Illustrator 21.1.0, SVG Export Plug-In . SVG Version: 6.00 Build 0)  -->
<svg version="1.1" id="Layer_1" xmlns="http://www.w3.org/2000/svg" xmlns:xlink="http://www.w3.org/1999/xlink" x="0px" y="0px"
	 viewBox="0 0 489.8 489.8" style="enable-background:new 0 0 489.8 489.8;" xml:space="preserve">
<style type="text/css">
	.st0{fill:#F2F2F2;}
</style>
<title>new-instagram-icon</title>
<path class="st0" d="M244.9,44.1c65.4,0,73.1,0.2,99,1.4c23.9,1.1,36.8,5.1,45.5,8.4c10.6,3.9,20.3,10.2,28.2,18.3
	c8.1,7.9,14.4,17.5,18.3,28.2c3.4,8.6,7.3,21.6,8.4,45.5c1.2,25.8,1.4,33.6,1.4,99s-0.2,73.1-1.4,99c-1.1,23.9-5.1,36.9-8.4,45.5
	c-8.2,21.4-25.1,38.2-46.5,46.5c-8.6,3.4-21.6,7.3-45.5,8.4c-25.8,1.2-33.6,1.4-99,1.4s-73.1-0.2-99-1.4
	c-23.9-1.1-36.8-5.1-45.5-8.4c-10.6-4-20.2-10.2-28.1-18.4c-8.1-7.9-14.4-17.5-18.3-28.2c-3.3-8.6-7.3-21.6-8.4-45.5
	c-1.2-25.8-1.4-33.6-1.4-99s0.2-73.1,1.4-99c1.1-23.9,5.1-36.8,8.4-45.5c3.9-10.6,10.2-20.2,18.3-28.1c7.9-8.1,17.5-14.4,28.2-18.3
	c8.6-3.3,21.6-7.3,45.5-8.4C171.8,44.4,179.5,44.1,244.9,44.1 M244.9,0c-66.5,0-74.9,0.3-101,1.5s-43.9,5.3-59.4,11.4
	C68.1,19,53.3,28.6,41.1,41.1C28.7,53.3,19,68.1,12.9,84.5c-6.1,15.6-10.2,33.4-11.4,59.5S0,178.4,0,244.9s0.3,74.9,1.5,101
	s5.3,43.9,11.4,59.5c6.2,16.3,15.8,31.1,28.2,43.4c12.2,12.5,27,22.1,43.4,28.2c15.6,6,33.4,10.2,59.5,11.4s34.5,1.5,101,1.5
	s74.9-0.3,101-1.5s43.9-5.3,59.5-11.4c32.9-12.7,58.9-38.7,71.6-71.6c6-15.6,10.2-33.4,11.4-59.5s1.5-34.5,1.5-101
	s-0.3-74.9-1.5-101s-5.3-43.9-11.4-59.4c-6.2-16.3-15.8-31.1-28.2-43.4c-12.2-12.5-27-22.1-43.4-28.3C389.8,6.8,372,2.7,345.9,1.5
	S311.4,0,244.9,0L244.9,0L244.9,0z"/>
<path class="st0" d="M244.9,119.2c-69.5,0-125.8,56.3-125.8,125.8s56.3,125.8,125.8,125.8s125.8-56.3,125.8-125.8
	S314.4,119.2,244.9,119.2C244.9,119.2,244.9,119.2,244.9,119.2z M244.9,326.6c-45.1,0-81.6-36.6-81.6-81.6s36.6-81.6,81.6-81.6
	s81.6,36.6,81.6,81.6S290,326.6,244.9,326.6L244.9,326.6z"/>
<circle class="st0" cx="375.7" cy="114.2" r="29.4"/>
</svg>
